<svg width="20" height="18" viewBox="0 0 20 18" fill="none" xmlns="http://www.w3.org/2000/svg">
<path d="M17.511 6.722C17.1114 5.25154 16.2916 3.92955 15.152 2.918L15.117 2.953L15.122 2.911C14.1265 2.03284 12.9237 1.42289 11.627 1.13876C10.3304 0.854619 8.98266 0.905669 7.71121 1.28709C6.43975 1.6685 5.28649 2.3677 4.36033 3.31865C3.43418 4.2696 2.76568 5.44092 2.41797 6.722C2.44897 6.709 2.48397 6.709 2.51697 6.699C1.77154 7.19682 1.15543 7.86506 0.719658 8.64839C0.283884 9.43171 0.0409851 10.3076 0.0110769 11.2035C-0.0188313 12.0993 0.165111 12.9894 0.547673 13.8001C0.930234 14.6107 1.50041 15.3186 2.21097 15.865L2.21697 15.859L2.21097 15.883C3.1918 16.6239 4.38876 17.0223 5.61797 17.017H9.93897L9.96297 17.041H14.304C15.5159 17.0507 16.6988 16.67 17.6776 15.9552C18.6564 15.2405 19.3791 14.2296 19.7388 13.0722C20.0985 11.9148 20.0761 10.6724 19.6749 9.52875C19.2736 8.3851 18.5149 7.40098 17.511 6.722V6.722ZM14.305 13.567H9.96397L9.95797 13.573V13.542H5.61797C5.30997 13.542 5.00697 13.476 4.72597 13.349L4.72797 13.348C4.4079 13.2036 4.12763 12.9837 3.91124 12.7072C3.69485 12.4307 3.54879 12.1058 3.48561 11.7604C3.42243 11.415 3.44401 11.0594 3.5485 10.7242C3.65299 10.3889 3.83726 10.0841 4.08551 9.83575C4.33375 9.58742 4.63855 9.40304 4.97374 9.29844C5.30892 9.19383 5.66449 9.17213 6.00991 9.23519C6.35534 9.29825 6.6803 9.4442 6.9569 9.66049C7.23351 9.87679 7.45349 10.157 7.59797 10.477L10.116 7.959C9.2783 6.86789 8.07038 6.12095 6.71997 5.859C6.73797 5.85 6.75497 5.835 6.76997 5.838C7.51446 5.0204 8.5433 4.51828 9.64589 4.43444C10.7485 4.3506 11.8414 4.69137 12.701 5.387H12.747C13.245 5.80219 13.6435 6.32382 13.9131 6.91346C14.1828 7.50311 14.3167 8.14573 14.305 8.794V9.227C14.8805 9.227 15.4324 9.45562 15.8394 9.86258C16.2464 10.2695 16.475 10.8215 16.475 11.397C16.475 11.9725 16.2464 12.5245 15.8394 12.9314C15.4324 13.3384 14.8805 13.567 14.305 13.567Z" fill="#7994F5"/>
</svg>
